<svg version="1.1" id="Layer_1" xmlns="http://www.w3.org/2000/svg" xmlns:xlink="http://www.w3.org/1999/xlink" x="0px" y="0px"
	 width="100%" viewBox="0 0 512 512" enable-background="new 0 0 512 512" xml:space="preserve">
<path fill="#000000" opacity="1.000000" stroke="none" 
	d="
M223.000000,513.000000 
	C148.684677,513.000000 74.869362,513.000000 1.027019,513.000000 
	C1.027019,342.392975 1.027019,171.785965 1.027019,1.089473 
	C171.565353,1.089473 342.130768,1.089473 512.848083,1.089473 
	C512.848083,171.666565 512.848083,342.333252 512.848083,513.000000 
	C416.452606,513.000000 319.976288,513.000000 223.000000,513.000000 
M264.579956,321.634064 
	C271.297394,314.723877 278.014832,307.813690 285.261932,300.473907 
	C288.419189,297.332428 291.593048,294.207367 294.730896,291.046600 
	C309.246552,276.424957 323.752228,261.793396 338.766418,247.066528 
	C339.101074,246.990738 339.435699,246.914963 340.671234,246.977371 
	C345.711060,247.803146 349.274017,245.872635 352.782288,242.075577 
	C360.723633,233.480530 369.244843,225.421249 378.205139,216.808029 
	C379.002563,216.105423 379.799988,215.402802 380.683472,214.624344 
	C377.899323,214.023743 375.438416,213.492874 373.637756,212.818512 
	C374.977448,211.365616 376.282928,209.879318 377.662567,208.465363 
	C385.141663,200.800522 392.639099,193.153549 400.680847,185.229584 
	C401.821838,183.767456 402.962860,182.305328 404.466949,180.377930 
	C401.631165,180.153610 399.691620,180.000183 398.021454,179.247635 
	C399.333649,177.809235 400.645813,176.370834 402.430359,174.706772 
	C402.234222,174.298462 402.038086,173.890137 400.937164,173.322968 
	C376.676117,173.387817 352.415039,173.452667 327.230194,173.244888 
	C325.090607,173.204559 322.948853,173.212143 320.811798,173.115723 
	C310.755005,172.661972 300.539398,171.744614 294.731018,182.766983 
	C294.505463,183.194962 294.223450,183.593170 293.385223,184.318924 
	C284.688446,193.814606 275.991638,203.310272 267.294830,212.805939 
	C267.628265,213.149063 267.961700,213.492203 268.295135,213.835327 
	C269.936676,213.835327 271.578186,213.835327 273.831177,213.971344 
	C274.309509,214.342606 274.787842,214.713867 274.915894,215.690033 
	C270.978546,220.230545 267.041168,224.771072 262.780884,229.684006 
	C260.099915,226.509827 259.000061,224.560303 257.349762,223.381073 
	C253.207520,220.421173 251.484894,214.180222 244.099457,214.151794 
	C243.773193,214.067322 243.446915,213.982849 242.800430,213.304581 
	C235.843140,205.995544 228.902740,198.670319 221.919510,191.386154 
	C219.442780,188.802704 216.861816,186.319199 213.919312,183.251297 
	C209.904526,179.241821 206.895004,173.959122 199.997879,174.023758 
	C173.592209,174.271255 147.184586,174.308411 120.778702,174.539703 
	C117.972275,174.564285 115.172493,175.347641 112.369637,175.779007 
	C111.906937,176.524719 111.444237,177.270432 110.981544,178.016144 
	C112.477943,178.753342 113.974350,179.490540 115.313553,180.539444 
	C115.313553,180.539444 115.329788,180.887283 114.573601,180.873947 
	C113.371391,180.999466 112.169174,181.124985 110.019012,181.349472 
	C111.861908,183.565033 113.004990,185.155914 114.362839,186.535385 
	C121.374352,193.658417 128.568405,200.606720 135.433807,207.866531 
	C138.813538,211.440445 142.145752,214.630402 147.855453,215.097137 
	C158.009628,225.494888 168.163788,235.892654 178.474258,246.450455 
	C177.131866,246.885880 176.265030,247.167053 174.792664,247.644638 
	C177.006607,249.745850 178.894348,251.537460 180.991333,253.954315 
	C192.732040,265.639404 204.472748,277.324524 216.397903,289.633057 
	C220.537949,293.552185 224.678009,297.471283 228.992874,302.022522 
	C237.730881,311.325439 246.468903,320.628326 255.420914,330.159058 
	C257.657806,327.760986 259.336334,325.961517 261.667755,324.089203 
	C262.433197,323.350220 263.198639,322.611237 264.579956,321.634064 
z"/>
<path fill="#00FF78" opacity="1.000000" stroke="none" 
	d="
M243.120651,213.898376 
	C243.446915,213.982849 243.773193,214.067322 244.657761,214.447754 
	C245.542923,215.509964 245.869766,216.276199 245.811523,217.035965 
	C244.254425,217.669220 243.082413,218.308945 241.910416,218.948669 
	C242.141235,219.397888 242.372040,219.847122 242.602859,220.296341 
	C244.658035,220.296341 246.713211,220.296341 248.959045,220.400726 
	C249.149719,220.505127 249.029419,220.922882 248.762878,221.431641 
	C248.528030,227.538605 245.618744,233.595978 250.473938,237.839645 
	C249.569336,239.888519 248.865738,241.765472 247.924988,243.514908 
	C247.280563,244.713257 246.424759,246.551971 245.458420,246.692276 
	C241.341293,247.290054 240.981842,250.030014 240.998840,253.234619 
	C241.018280,256.896149 241.301315,260.587646 240.942245,264.213867 
	C239.969147,274.040833 244.065796,284.490784 238.263992,292.010956 
	C239.459106,295.855316 240.240936,298.370178 240.675476,300.917603 
	C239.863800,300.971161 239.399429,300.992188 238.540192,301.007874 
	C237.095291,301.064331 236.045227,301.126099 234.726334,301.130493 
	C234.098862,300.997498 233.740234,300.921906 233.220886,300.538513 
	C229.718719,296.534149 226.377258,292.837555 223.403381,289.095886 
	C224.511276,289.034119 225.251617,289.017487 226.388428,289.003174 
	C228.306274,288.900970 229.827667,288.796478 231.933502,288.651855 
	C230.694626,286.333435 229.806076,284.670593 229.338806,283.005005 
	C232.446747,283.067017 234.943039,282.800079 234.956009,279.243652 
	C234.982605,271.950592 235.144897,264.647705 234.785080,257.371918 
	C234.710007,255.854004 232.845612,254.137207 231.405792,253.034241 
	C228.456818,250.775177 228.150711,248.384232 231.415924,247.184769 
	C236.406830,245.351379 235.445007,242.548035 234.996704,238.219803 
	C234.269806,231.201752 229.806244,222.911636 238.653458,217.286377 
	C239.439133,216.786819 239.541672,215.212830 240.353378,214.080948 
	C241.537048,213.982162 242.328857,213.940262 243.120651,213.898376 
z"/>
<path fill="#00FED2" opacity="1.000000" stroke="none" 
	d="
M339.770355,246.839172 
	C339.435699,246.914963 339.101074,246.990738 338.055359,247.049652 
	C334.894714,247.069138 332.445160,247.105499 330.075836,246.803589 
	C330.889008,244.719589 332.267456,242.960648 332.231995,241.230667 
	C332.131775,236.343857 331.258118,231.476868 331.058014,226.586960 
	C330.881470,222.272781 329.428680,217.233734 337.013031,215.470749 
	C330.859039,213.139191 331.064545,209.089081 330.898468,204.820480 
	C330.649658,198.425110 332.795105,191.714447 328.575287,185.726929 
	C329.720337,185.246582 330.600372,184.877396 330.397644,184.962448 
	C328.964020,183.416595 327.487152,181.824142 326.257507,180.137909 
	C326.670807,179.984970 326.836853,179.925842 327.252747,179.954514 
	C327.668243,180.103363 327.833893,180.164429 328.302307,180.397415 
	C330.373077,180.455948 332.141083,180.342560 334.300110,180.155365 
	C335.482086,180.130219 336.273071,180.178894 337.276825,180.392273 
	C338.313263,180.448547 339.136963,180.340118 340.335815,180.160004 
	C341.469696,180.140244 342.228455,180.192123 343.039703,180.618500 
	C344.892395,181.661057 346.707458,182.292191 348.488220,183.008484 
	C350.012146,183.621429 351.496765,184.332001 352.535095,184.997833 
	C348.032562,184.996292 343.993774,184.996292 341.153046,184.996292 
	C341.153046,189.714569 340.918335,193.582840 341.205719,197.411942 
	C341.687469,203.831284 337.679962,211.642303 346.676727,215.283615 
	C346.442078,215.801987 346.403687,216.058655 346.300812,216.087830 
	C345.074890,216.435211 343.722107,216.536392 342.640656,217.133347 
	C341.639526,217.685959 340.158600,218.804672 340.205109,219.596786 
	C340.645447,227.092606 337.457733,235.260529 343.968384,241.779999 
	C343.957428,241.851242 343.827179,241.913086 343.485626,241.706223 
	C342.306335,241.699478 341.468597,241.899582 340.630859,242.099701 
	C341.078827,242.729752 341.526794,243.359787 341.856232,244.268860 
	C341.081909,245.311661 340.426147,246.075424 339.770355,246.839172 
z"/>
<path fill="#00004B" opacity="1.000000" stroke="none" 
	d="
M115.470757,180.227737 
	C113.974350,179.490540 112.477943,178.753342 110.981544,178.016144 
	C111.444237,177.270432 111.906937,176.524719 112.369637,175.779007 
	C115.172493,175.347641 117.972275,174.564285 120.778702,174.539703 
	C147.184586,174.308411 173.592209,174.271255 199.997879,174.023758 
	C206.895004,173.959122 209.904526,179.241821 213.677612,183.605927 
	C212.865341,184.136398 212.294769,184.312241 211.348419,184.460526 
	C209.008652,183.235138 207.044678,182.037308 204.959076,180.719116 
	C204.529190,180.673309 204.220932,180.747879 203.454651,180.825867 
	C198.993134,180.922073 194.989639,181.014877 190.527771,181.011856 
	C184.046692,180.982269 178.024002,181.048523 171.542603,181.019958 
	C166.060654,180.991180 161.037399,181.057251 155.552719,181.026215 
	C144.986099,180.890305 134.880936,180.851486 124.748474,180.707855 
	C124.721199,180.603043 124.409943,180.574265 124.409943,180.574265 
	C124.409943,180.574265 124.263184,180.815109 123.805527,180.832947 
	C120.967896,180.945496 118.587906,181.040207 116.112228,181.029602 
	C116.016533,180.924286 115.750160,180.824081 115.757477,180.706436 
	C115.764801,180.588791 115.470757,180.227737 115.470757,180.227737 
z"/>
<path fill="#00FB01" opacity="1.000000" stroke="none" 
	d="
M329.995605,247.141876 
	C332.445160,247.105499 334.894714,247.069138 337.802887,247.099075 
	C323.752228,261.793396 309.246552,276.424957 294.730896,291.046600 
	C291.593048,294.207367 288.419189,297.332428 284.561401,300.714722 
	C281.505463,300.978424 279.150024,301.001282 276.909302,300.729248 
	C277.649017,299.607361 278.274017,298.780334 279.187744,297.781921 
	C285.648376,291.406036 291.820251,285.201538 298.277649,278.826782 
	C302.751862,273.798309 306.940491,268.940094 311.476746,264.035675 
	C317.881439,258.373627 323.938507,252.757751 329.995605,247.141876 
z"/>
<path fill="#0000F5" opacity="1.000000" stroke="none" 
	d="
M342.987183,180.244019 
	C342.228455,180.192123 341.469696,180.140244 339.977386,180.083939 
	C338.517242,180.128876 337.790649,180.178238 337.064087,180.227570 
	C336.273071,180.178894 335.482086,180.130219 333.950684,180.079178 
	C332.500061,180.006836 331.789886,179.936859 331.039124,179.521912 
	C330.050354,177.290466 329.102173,175.403992 328.153992,173.517517 
	C352.415039,173.452667 376.676117,173.387817 401.358734,173.645844 
	C401.806396,174.296082 401.865631,174.617325 401.958008,174.932434 
	C400.645813,176.370834 399.333649,177.809235 397.627747,179.631775 
	C397.067566,180.088776 396.901154,180.161636 396.288422,180.171387 
	C378.223785,180.153534 360.605469,180.198776 342.987183,180.244019 
z"/>
<path fill="#00FB01" opacity="1.000000" stroke="none" 
	d="
M180.782089,253.329086 
	C178.894348,251.537460 177.006607,249.745850 174.792664,247.644638 
	C176.265030,247.167053 177.131866,246.885880 178.474258,246.450455 
	C168.163788,235.892654 158.009628,225.494888 147.789856,214.692291 
	C147.724274,214.287460 148.013763,213.980103 148.423187,213.988541 
	C152.823486,213.197891 155.131378,215.703384 157.423141,218.314377 
	C158.213608,219.214951 159.170120,219.969788 160.317291,221.009735 
	C164.324448,224.831467 168.065063,228.434662 171.987549,232.324570 
	C176.318466,236.974564 180.467529,241.337845 184.790924,245.884476 
	C183.308533,246.812729 182.432663,247.361191 181.542572,247.918564 
	C182.856705,249.728241 183.993332,251.293442 184.695724,252.917465 
	C183.101700,253.093887 181.941895,253.211487 180.782089,253.329086 
z"/>
<path fill="#00FB01" opacity="1.000000" stroke="none" 
	d="
M340.220795,246.908264 
	C340.426147,246.075424 341.081909,245.311661 342.140991,244.154907 
	C342.971924,243.145630 343.399536,242.529358 343.827148,241.913086 
	C343.827179,241.913086 343.957428,241.851242 344.244781,241.707077 
	C346.008911,240.007050 347.485718,238.451172 349.261536,236.777023 
	C351.015198,235.092560 352.469879,233.526382 354.229187,231.818741 
	C359.927124,226.628540 365.320404,221.579834 371.127747,216.672165 
	C373.537964,216.923508 375.534119,217.033798 377.530243,217.144089 
	C369.244843,225.421249 360.723633,233.480530 352.782288,242.075577 
	C349.274017,245.872635 345.711060,247.803146 340.220795,246.908264 
z"/>
<path fill="#007B02" opacity="1.000000" stroke="none" 
	d="
M180.886719,253.641693 
	C181.941895,253.211487 183.101700,253.093887 185.014267,252.980927 
	C186.197845,253.054047 186.628647,253.122528 187.173050,253.487518 
	C198.845383,265.456848 210.404129,277.129669 221.554535,288.855957 
	C219.501953,288.942841 217.857697,288.976227 216.213455,289.009613 
	C204.472748,277.324524 192.732040,265.639404 180.886719,253.641693 
z"/>
<path fill="#00FF78" opacity="1.000000" stroke="none" 
	d="
M400.130219,185.500412 
	C392.639099,193.153549 385.141663,200.800522 377.662567,208.465363 
	C376.282928,209.879318 374.977448,211.365616 373.088196,212.659149 
	C371.357178,211.365845 370.175781,210.231934 369.226746,208.844269 
	C369.719543,207.981918 369.825958,207.215790 370.263336,206.788055 
	C378.042938,199.179886 385.862671,191.612793 394.087341,184.022308 
	C396.377380,184.505295 398.253784,185.002853 400.130219,185.500412 
z"/>
<path fill="#0000B4" opacity="1.000000" stroke="none" 
	d="
M327.692078,173.381195 
	C329.102173,175.403992 330.050354,177.290466 330.655518,179.592514 
	C329.541534,180.080551 328.770569,180.153015 327.999573,180.225494 
	C327.833893,180.164429 327.668243,180.103363 327.028015,179.784973 
	C325.695740,179.640778 324.838074,179.753891 323.586365,179.938629 
	C322.129333,180.080353 321.066345,180.150467 319.754456,180.161438 
	C319.339722,180.142044 319.173889,180.181839 318.546875,180.148590 
	C315.295837,180.064941 312.496185,180.196991 309.718384,180.008331 
	C306.073212,179.760757 302.879669,180.254471 300.733276,183.937195 
	C300.306976,184.074997 300.137329,184.132767 299.542358,184.136810 
	C297.400574,184.057159 295.684174,184.031219 293.967743,184.005280 
	C294.223450,183.593170 294.505463,183.194962 294.731018,182.766983 
	C300.539398,171.744614 310.755005,172.661972 320.811798,173.115723 
	C322.948853,173.212143 325.090607,173.204559 327.692078,173.381195 
z"/>
<path fill="#00FB01" opacity="1.000000" stroke="none" 
	d="
M147.577362,214.439056 
	C142.145752,214.630402 138.813538,211.440445 135.433807,207.866531 
	C128.568405,200.606720 121.374352,193.658417 114.362839,186.535385 
	C113.004990,185.155914 111.861908,183.565033 110.019012,181.349472 
	C112.169174,181.124985 113.371391,180.999466 115.064667,180.931381 
	C115.555725,180.988815 115.750160,180.824081 115.750160,180.824081 
	C115.750160,180.824081 116.016533,180.924286 116.245644,181.311722 
	C126.987755,192.459473 137.500763,203.219788 148.013763,213.980103 
	C148.013763,213.980103 147.724274,214.287460 147.577362,214.439056 
z"/>
<path fill="#0000B4" opacity="1.000000" stroke="none" 
	d="
M246.196609,217.042435 
	C245.869766,216.276199 245.542923,215.509964 245.159744,214.507721 
	C251.484894,214.180222 253.207520,220.421173 257.349762,223.381073 
	C259.000061,224.560303 260.099915,226.509827 262.780884,229.684006 
	C267.041168,224.771072 270.978546,220.230545 275.411102,215.393188 
	C276.759552,215.075912 277.612762,215.055481 278.479126,215.384827 
	C277.546295,217.559891 276.794800,219.524643 275.608917,221.177780 
	C273.821381,223.669617 271.730377,225.943741 269.464020,228.481918 
	C266.871613,230.587265 264.583527,232.521103 262.096832,234.147430 
	C257.608612,229.534256 253.319016,225.228561 249.029419,220.922882 
	C249.029419,220.922882 249.149719,220.505127 248.757141,220.194427 
	C247.641907,218.936615 246.919250,217.989532 246.196609,217.042435 
z"/>
<path fill="#00004B" opacity="1.000000" stroke="none" 
	d="
M293.676483,184.162109 
	C295.684174,184.031219 297.400574,184.057159 299.409363,184.427994 
	C290.874359,194.460373 282.047028,204.147842 273.219696,213.835327 
	C271.578186,213.835327 269.936676,213.835327 268.295135,213.835327 
	C267.961700,213.492203 267.628265,213.149063 267.294830,212.805939 
	C275.991638,203.310272 284.688446,193.814606 293.676483,184.162109 
z"/>
<path fill="#007B02" opacity="1.000000" stroke="none" 
	d="
M233.381592,300.846313 
	C233.740234,300.921906 234.098862,300.997498 234.911560,301.397491 
	C241.695267,308.618073 248.024918,315.514252 254.609863,322.688568 
	C255.707672,321.321747 256.405579,320.452820 257.327637,319.624786 
	C257.551727,319.665680 258.000885,319.742279 258.118164,320.063446 
	C259.161896,321.643768 260.088379,322.902924 261.014832,324.162048 
	C259.336334,325.961517 257.657806,327.760986 255.420914,330.159058 
	C246.468903,320.628326 237.730881,311.325439 229.347382,301.588501 
	C230.928452,301.051758 232.155029,300.949036 233.381592,300.846313 
z"/>
<path fill="#00FF48" opacity="1.000000" stroke="none" 
	d="
M276.794617,301.024139 
	C279.150024,301.001282 281.505463,300.978424 284.296570,300.929504 
	C278.014832,307.813690 271.297394,314.723877 264.254974,321.396057 
	C263.287964,319.659790 262.645905,318.161469 262.054626,316.356384 
	C262.800751,314.727325 263.496155,313.405090 264.460663,311.903992 
	C267.142334,309.474213 269.554901,307.223328 272.242462,304.814636 
	C273.943176,303.445892 275.368896,302.235016 276.794617,301.024139 
z"/>
<path fill="#007C54" opacity="1.000000" stroke="none" 
	d="
M211.724213,184.488098 
	C212.294769,184.312241 212.865341,184.136398 213.882172,183.875305 
	C216.861816,186.319199 219.442780,188.802704 221.919510,191.386154 
	C228.902740,198.670319 235.843140,205.995544 242.960541,213.601471 
	C242.328857,213.940262 241.537048,213.982162 240.018036,213.993286 
	C237.892883,212.860458 236.359573,211.891754 235.120148,210.633545 
	C229.365662,204.791809 223.692642,198.869858 217.832397,192.686935 
	C215.690979,189.760864 213.707596,187.124481 211.724213,184.488098 
z"/>
<path fill="#007C54" opacity="1.000000" stroke="none" 
	d="
M273.525452,213.903336 
	C282.047028,204.147842 290.874359,194.460373 299.834717,184.481720 
	C300.137329,184.132767 300.306976,184.074997 301.104248,183.992783 
	C302.477661,184.033646 303.223480,184.098953 303.813049,184.402527 
	C299.321472,189.377579 294.751282,193.924042 290.715790,198.903809 
	C286.535736,204.061981 282.874115,209.640289 278.855835,215.087067 
	C278.725922,215.139328 278.466003,215.035049 278.466003,215.035049 
	C277.612762,215.055481 276.759552,215.075912 275.586243,215.090729 
	C274.787842,214.713867 274.309509,214.342606 273.525452,213.903336 
z"/>
<path fill="#00FB01" opacity="1.000000" stroke="none" 
	d="
M233.220886,300.538513 
	C232.155029,300.949036 230.928452,301.051758 229.259979,301.272461 
	C224.678009,297.471283 220.537949,293.552185 216.305679,289.321350 
	C217.857697,288.976227 219.501953,288.942841 221.822205,288.942535 
	C222.677399,289.030762 222.856598,289.085876 223.035797,289.140991 
	C226.377258,292.837555 229.718719,296.534149 233.220886,300.538513 
z"/>
<path fill="#00FE6D" opacity="1.000000" stroke="none" 
	d="
M368.994354,209.098007 
	C370.175781,210.231934 371.357178,211.365845 372.758057,212.730881 
	C375.438416,213.492874 377.899323,214.023743 380.683472,214.624344 
	C379.799988,215.402802 379.002563,216.105423 377.867676,216.976059 
	C375.534119,217.033798 373.537964,216.923508 371.180695,216.374542 
	C370.328918,215.284592 369.957520,214.253494 369.324799,214.054871 
	C367.582489,213.507965 365.730682,213.309723 364.235657,212.882324 
	C366.030853,211.560074 367.512604,210.329041 368.994354,209.098007 
z"/>
<path fill="#00FB01" opacity="1.000000" stroke="none" 
	d="
M400.405518,185.364990 
	C398.253784,185.002853 396.377380,184.505295 394.179626,183.716568 
	C394.817139,182.361755 395.775940,181.298126 396.734772,180.234482 
	C396.901154,180.161636 397.067566,180.088776 397.493042,179.931335 
	C399.691620,180.000183 401.631165,180.153610 404.466949,180.377930 
	C402.962860,182.305328 401.821838,183.767456 400.405518,185.364990 
z"/>
<path fill="#00FB01" opacity="1.000000" stroke="none" 
	d="
M262.003876,316.663177 
	C262.645905,318.161469 263.287964,319.659790 263.947052,321.515198 
	C263.198639,322.611237 262.433197,323.350220 261.341309,324.125641 
	C260.088379,322.902924 259.161896,321.643768 258.272339,319.807007 
	C258.854645,318.378937 259.400024,317.528503 260.288391,316.687225 
	C261.088898,316.685333 261.546387,316.674255 262.003876,316.663177 
z"/>
<path fill="#0000B4" opacity="1.000000" stroke="none" 
	d="
M402.194183,174.819611 
	C401.865631,174.617325 401.806396,174.296082 401.811127,173.725266 
	C402.038086,173.890137 402.234222,174.298462 402.194183,174.819611 
z"/>
<path fill="#007C54" opacity="1.000000" stroke="none" 
	d="
M115.757477,180.706436 
	C115.750160,180.824081 115.555725,180.988815 115.442757,180.938049 
	C115.329788,180.887283 115.313553,180.539444 115.392151,180.383591 
	C115.470757,180.227737 115.764801,180.588791 115.757477,180.706436 
z"/>
<path fill="#00FE6D" opacity="1.000000" stroke="none" 
	d="
M217.990448,192.976624 
	C223.692642,198.869858 229.365662,204.791809 235.120148,210.633545 
	C236.359573,211.891754 237.892883,212.860458 239.626160,214.050171 
	C239.541672,215.212830 239.439133,216.786819 238.653458,217.286377 
	C229.806244,222.911636 234.269806,231.201752 234.996704,238.219803 
	C235.445007,242.548035 236.406830,245.351379 231.415924,247.184769 
	C228.150711,248.384232 228.456818,250.775177 231.405792,253.034241 
	C232.845612,254.137207 234.710007,255.854004 234.785080,257.371918 
	C235.144897,264.647705 234.982605,271.950592 234.956009,279.243652 
	C234.943039,282.800079 232.446747,283.067017 229.058777,282.838104 
	C224.545563,278.796783 220.733658,274.919556 217.153564,270.758057 
	C217.322723,267.705811 216.754868,264.832214 217.306656,262.192749 
	C218.331375,257.290863 216.227142,254.740036 212.057495,252.923645 
	C210.904358,252.421326 210.128174,251.053726 209.179031,250.083130 
	C210.246262,249.060440 211.188171,247.375534 212.405365,247.145233 
	C215.464645,246.566269 216.024734,244.730774 216.004730,242.155441 
	C215.968674,237.512329 215.930725,232.867432 216.017914,228.225632 
	C216.116470,222.978027 214.078903,216.557358 223.649307,215.788696 
	C215.750580,213.220001 216.844925,207.561523 217.093948,202.336990 
	C217.243011,199.209732 217.681854,196.096283 217.990448,192.976624 
z"/>
<path fill="#00FF82" opacity="1.000000" stroke="none" 
	d="
M262.054626,316.356384 
	C261.546387,316.674255 261.088898,316.685333 260.058228,316.477264 
	C255.800629,312.148254 252.355911,307.779510 248.323898,304.044891 
	C246.488876,302.345245 243.492401,301.899536 241.022751,300.885071 
	C240.240936,298.370178 239.459106,295.855316 238.263992,292.010956 
	C244.065796,284.490784 239.969147,274.040833 240.942245,264.213867 
	C241.301315,260.587646 241.018280,256.896149 240.998840,253.234619 
	C240.981842,250.030014 241.341293,247.290054 245.458420,246.692276 
	C246.424759,246.551971 247.280563,244.713257 247.924988,243.514908 
	C248.865738,241.765472 249.569336,239.888519 250.473938,237.839645 
	C245.618744,233.595978 248.528030,227.538605 248.762878,221.431641 
	C253.319016,225.228561 257.608612,229.534256 261.704590,234.270233 
	C261.195343,235.995178 260.528717,237.318970 260.633362,238.578705 
	C260.893280,241.707703 262.144745,245.654694 258.169220,246.656631 
	C253.997253,247.708038 253.978043,250.133209 253.985947,253.264801 
	C254.019531,266.597931 253.975555,279.931305 254.013138,293.264435 
	C254.026077,297.853149 252.821350,303.444824 261.089020,301.675354 
	C260.574432,304.195343 260.392731,306.026062 259.816986,307.723083 
	C258.263306,312.302551 260.253418,313.120361 264.191559,312.082855 
	C263.496155,313.405090 262.800751,314.727325 262.054626,316.356384 
z"/>
<path fill="#00FE3B" opacity="1.000000" stroke="none" 
	d="
M216.921753,271.042358 
	C220.733658,274.919556 224.545563,278.796783 228.637497,282.840881 
	C229.806076,284.670593 230.694626,286.333435 231.933502,288.651855 
	C229.827667,288.796478 228.306274,288.900970 226.280518,288.683777 
	C223.320663,285.514526 221.003403,282.532318 218.384460,279.843964 
	C209.612854,270.839874 200.733505,261.940735 192.181030,252.987732 
	C192.656448,252.961121 192.846222,252.948212 193.428360,252.948578 
	C196.579315,254.509476 199.633408,255.698624 202.035492,257.678741 
	C207.176300,261.916443 211.979996,266.563171 216.921753,271.042358 
z"/>
<path fill="#007C54" opacity="1.000000" stroke="none" 
	d="
M191.895416,253.001434 
	C200.733505,261.940735 209.612854,270.839874 218.384460,279.843964 
	C221.003403,282.532318 223.320663,285.514526 225.884048,288.681519 
	C225.251617,289.017487 224.511276,289.034119 223.403381,289.095886 
	C222.856598,289.085876 222.677399,289.030762 222.230545,288.889038 
	C210.404129,277.129669 198.845383,265.456848 187.570435,253.431091 
	C189.201294,253.052567 190.548355,253.026993 191.895416,253.001434 
z"/>
<path fill="#00FF48" opacity="1.000000" stroke="none" 
	d="
M240.675476,300.917603 
	C243.492401,301.899536 246.488876,302.345245 248.323898,304.044891 
	C252.355911,307.779510 255.800629,312.148254 259.715240,316.468079 
	C259.400024,317.528503 258.854645,318.378937 258.155060,319.485840 
	C258.000885,319.742279 257.551727,319.665680 257.130005,319.383118 
	C250.783844,313.071442 244.859451,307.042328 238.935043,301.013214 
	C239.399429,300.992188 239.863800,300.971161 240.675476,300.917603 
z"/>
<path fill="#007C54" opacity="1.000000" stroke="none" 
	d="
M238.540192,301.007874 
	C244.859451,307.042328 250.783844,313.071442 256.905884,319.342224 
	C256.405579,320.452820 255.707672,321.321747 254.609863,322.688568 
	C248.024918,315.514252 241.695267,308.618073 235.180389,301.454895 
	C236.045227,301.126099 237.095291,301.064331 238.540192,301.007874 
z"/>
<path fill="#00FF82" opacity="1.000000" stroke="none" 
	d="
M245.811523,217.035965 
	C246.919250,217.989532 247.641907,218.936615 248.566467,220.090027 
	C246.713211,220.296341 244.658035,220.296341 242.602859,220.296341 
	C242.372040,219.847122 242.141235,219.397888 241.910416,218.948669 
	C243.082413,218.308945 244.254425,217.669220 245.811523,217.035965 
z"/>
<path fill="#00FEC5" opacity="1.000000" stroke="none" 
	d="
M303.969330,184.164261 
	C303.223480,184.098953 302.477661,184.033646 301.360840,183.912750 
	C302.879669,180.254471 306.073212,179.760757 309.718384,180.008331 
	C312.496185,180.196991 315.295837,180.064941 318.659515,180.237808 
	C319.233276,180.400040 319.643005,180.440887 319.643005,180.440887 
	C319.643005,180.440887 320.003357,180.220596 320.003357,180.220596 
	C321.066345,180.150467 322.129333,180.080353 323.923218,180.013123 
	C325.106201,180.087921 325.558228,180.159805 326.010284,180.231689 
	C327.487152,181.824142 328.964020,183.416595 330.397644,184.962448 
	C330.600372,184.877396 329.720337,185.246582 328.575287,185.726929 
	C332.795105,191.714447 330.649658,198.425110 330.898468,204.820480 
	C331.064545,209.089081 330.859039,213.139191 337.013031,215.470749 
	C329.428680,217.233734 330.881470,222.272781 331.058014,226.586960 
	C331.258118,231.476868 332.131775,236.343857 332.231995,241.230667 
	C332.267456,242.960648 330.889008,244.719589 330.075836,246.803589 
	C323.938507,252.757751 317.881439,258.373627 311.184814,263.852600 
	C310.015472,262.541077 309.485657,261.366455 309.144806,260.610779 
	C311.239502,260.019073 312.644562,259.622192 314.049622,259.225311 
	C313.559845,258.195374 313.170288,257.099976 312.552521,256.153534 
	C311.913208,255.174103 310.521210,254.405258 310.399506,253.427231 
	C310.147736,251.403610 310.111572,247.647766 310.702728,247.501678 
	C314.515259,246.559570 313.968292,243.845932 313.999756,241.235748 
	C314.106201,232.405807 314.212616,223.575867 314.322174,214.484573 
	C310.447540,214.671906 309.966003,211.738586 309.900116,207.734787 
	C309.792938,201.217926 309.001617,194.712311 308.648315,187.941162 
	C309.317932,186.614746 309.838226,185.549103 310.514404,184.164261 
	C307.915802,184.164261 305.942566,184.164261 303.969330,184.164261 
z"/>
<path fill="#00FEDE" opacity="1.000000" stroke="none" 
	d="
M363.922211,212.973541 
	C365.730682,213.309723 367.582489,213.507965 369.324799,214.054871 
	C369.957520,214.253494 370.328918,215.284592 370.766602,216.233490 
	C365.320404,221.579834 359.927124,226.628540 353.946045,231.631653 
	C350.922791,229.850876 348.487274,228.115723 346.051758,226.380569 
	C345.705078,226.611649 345.358368,226.842728 345.011658,227.073807 
	C345.474213,228.413010 345.877411,229.776474 346.413239,231.085693 
	C347.213989,233.042282 348.108093,234.960678 348.962494,236.895309 
	C347.485718,238.451172 346.008911,240.007050 344.255737,241.635834 
	C337.457733,235.260529 340.645447,227.092606 340.205109,219.596786 
	C340.158600,218.804672 341.639526,217.685959 342.640656,217.133347 
	C343.722107,216.536392 345.074890,216.435211 346.300812,216.087830 
	C346.403687,216.058655 346.442078,215.801987 346.676727,215.283615 
	C337.679962,211.642303 341.687469,203.831284 341.205719,197.411942 
	C340.918335,193.582840 341.153046,189.714569 341.153046,184.996292 
	C343.993774,184.996292 348.032562,184.996292 352.637848,185.340424 
	C359.518616,190.389755 357.155273,197.108124 356.507385,202.918839 
	C355.813080,209.145615 357.407806,212.298676 363.922211,212.973541 
z"/>
<path fill="#00FDE9" opacity="1.000000" stroke="none" 
	d="
M364.235657,212.882324 
	C357.407806,212.298676 355.813080,209.145615 356.507385,202.918839 
	C357.155273,197.108124 359.518616,190.389755 353.101562,185.341965 
	C351.496765,184.332001 350.012146,183.621429 348.488220,183.008484 
	C346.707458,182.292191 344.892395,181.661057 343.039703,180.618500 
	C360.605469,180.198776 378.223785,180.153534 396.288422,180.171387 
	C395.775940,181.298126 394.817139,182.361755 393.766052,183.731140 
	C385.862671,191.612793 378.042938,199.179886 370.263336,206.788055 
	C369.825958,207.215790 369.719543,207.981918 369.226746,208.844269 
	C367.512604,210.329041 366.030853,211.560074 364.235657,212.882324 
z"/>
<path fill="#00FEDE" opacity="1.000000" stroke="none" 
	d="
M343.485596,241.706207 
	C343.399536,242.529358 342.971924,243.145630 342.259521,243.875854 
	C341.526794,243.359787 341.078827,242.729752 340.630859,242.099701 
	C341.468597,241.899582 342.306335,241.699478 343.485596,241.706207 
z"/>
<path fill="#00FDE9" opacity="1.000000" stroke="none" 
	d="
M328.302307,180.397415 
	C328.770569,180.153015 329.541534,180.080551 330.696106,179.937485 
	C331.789886,179.936859 332.500061,180.006836 333.559692,180.152985 
	C332.141083,180.342560 330.373077,180.455948 328.302307,180.397415 
z"/>
<path fill="#0000F5" opacity="1.000000" stroke="none" 
	d="
M326.257507,180.137909 
	C325.558228,180.159805 325.106201,180.087921 324.317261,179.941528 
	C324.838074,179.753891 325.695740,179.640778 326.778137,179.697205 
	C326.836853,179.925842 326.670807,179.984970 326.257507,180.137909 
z"/>
<path fill="#00FDE9" opacity="1.000000" stroke="none" 
	d="
M337.276825,180.392288 
	C337.790649,180.178238 338.517242,180.128876 339.602234,180.155609 
	C339.136963,180.340118 338.313263,180.448547 337.276825,180.392288 
z"/>
<path fill="#00FE61" opacity="1.000000" stroke="none" 
	d="
M217.153564,270.758057 
	C211.979996,266.563171 207.176300,261.916443 202.035492,257.678741 
	C199.633408,255.698624 196.579315,254.509476 193.510849,252.623978 
	C194.230499,250.786484 195.447845,249.380127 196.249023,247.767059 
	C197.742950,244.759323 199.687378,241.736130 200.172668,238.527084 
	C200.782532,234.494263 200.245239,230.259476 199.963669,226.128174 
	C199.669540,221.812424 200.013336,217.896881 204.138031,216.128983 
	C202.681091,213.866516 200.177109,211.772644 200.369385,209.965698 
	C201.196991,202.188370 201.605774,194.695541 198.669647,187.114807 
	C197.647675,184.476212 197.115204,183.221924 194.177078,183.318649 
	C193.138809,183.352814 192.051224,181.888077 190.986145,181.107681 
	C194.989639,181.014877 198.993134,180.922073 203.745514,180.901108 
	C204.689835,180.928452 204.885269,180.883957 205.080688,180.839478 
	C207.044678,182.037308 209.008652,183.235138 211.348419,184.460526 
	C213.707596,187.124481 215.690979,189.760864 217.832397,192.686935 
	C217.681854,196.096283 217.243011,199.209732 217.093948,202.336990 
	C216.844925,207.561523 215.750580,213.220001 223.649307,215.788696 
	C214.078903,216.557358 216.116470,222.978027 216.017914,228.225632 
	C215.930725,232.867432 215.968674,237.512329 216.004730,242.155441 
	C216.024734,244.730774 215.464645,246.566269 212.405365,247.145233 
	C211.188171,247.375534 210.246262,249.060440 209.179031,250.083130 
	C210.128174,251.053726 210.904358,252.421326 212.057495,252.923645 
	C216.227142,254.740036 218.331375,257.290863 217.306656,262.192749 
	C216.754868,264.832214 217.322723,267.705811 217.153564,270.758057 
z"/>
<path fill="#00FF54" opacity="1.000000" stroke="none" 
	d="
M190.527771,181.011856 
	C192.051224,181.888077 193.138809,183.352814 194.177078,183.318649 
	C197.115204,183.221924 197.647675,184.476212 198.669647,187.114807 
	C201.605774,194.695541 201.196991,202.188370 200.369385,209.965698 
	C200.177109,211.772644 202.681091,213.866516 204.138031,216.128983 
	C200.013336,217.896881 199.669540,221.812424 199.963669,226.128174 
	C200.245239,230.259476 200.782532,234.494263 200.172668,238.527084 
	C199.687378,241.736130 197.742950,244.759323 196.249023,247.767059 
	C195.447845,249.380127 194.230499,250.786484 193.118469,252.610718 
	C192.846222,252.948212 192.656448,252.961121 192.181030,252.987732 
	C190.548355,253.026993 189.201294,253.052567 187.456848,253.134567 
	C186.628647,253.122528 186.197845,253.054047 185.448486,252.922119 
	C183.993332,251.293442 182.856705,249.728241 181.542572,247.918564 
	C182.432663,247.361191 183.308533,246.812729 184.790924,245.884476 
	C180.467529,241.337845 176.318466,236.974564 172.333176,232.270447 
	C173.306351,231.758972 174.311646,231.193344 174.893341,231.481827 
	C178.661346,233.350540 181.101379,230.749603 182.912369,228.505692 
	C183.701370,227.528076 182.242416,224.736176 181.648987,222.070068 
	C182.467239,221.197250 184.173492,219.943909 185.041489,218.258804 
	C185.654526,217.068695 185.729095,214.401489 185.017746,213.924576 
	C180.563446,210.938248 181.023926,207.009537 181.484695,202.451614 
	C181.960022,197.749786 181.205856,192.923676 180.989594,188.151932 
	C180.520569,188.121185 180.051544,188.090424 179.582520,188.059677 
	C180.468216,187.337250 181.353897,186.614807 182.686234,185.528046 
	C179.891388,184.934204 177.701233,184.733994 175.735886,183.961700 
	C174.334518,183.411026 173.235336,182.091309 172.001297,181.114777 
	C178.024002,181.048523 184.046692,180.982269 190.527771,181.011856 
z"/>
<path fill="#00FF48" opacity="1.000000" stroke="none" 
	d="
M171.542603,181.019958 
	C173.235336,182.091309 174.334518,183.411026 175.735886,183.961700 
	C177.701233,184.733994 179.891388,184.934204 182.686234,185.528046 
	C181.353897,186.614807 180.468216,187.337250 179.582520,188.059677 
	C180.051544,188.090424 180.520569,188.121185 180.989594,188.151932 
	C181.205856,192.923676 181.960022,197.749786 181.484695,202.451614 
	C181.023926,207.009537 180.563446,210.938248 185.017746,213.924576 
	C185.729095,214.401489 185.654526,217.068695 185.041489,218.258804 
	C184.173492,219.943909 182.467239,221.197250 181.648987,222.070068 
	C182.242416,224.736176 183.701370,227.528076 182.912369,228.505692 
	C181.101379,230.749603 178.661346,233.350540 174.893341,231.481827 
	C174.311646,231.193344 173.306351,231.758972 172.151306,231.983734 
	C168.065063,228.434662 164.324448,224.831467 160.303375,220.637772 
	C159.982834,219.385895 160.160828,218.600403 159.866714,218.083588 
	C158.154510,215.074814 156.047363,212.131363 160.406281,209.475113 
	C160.628815,209.339508 160.398376,207.820328 160.229568,207.790527 
	C159.367691,207.638336 158.288589,207.466568 157.599060,207.856384 
	C156.291763,208.595413 155.197968,209.712097 154.015488,210.671890 
	C153.670425,210.398041 153.325378,210.124191 152.980316,209.850327 
	C158.673706,203.022949 157.533127,195.483765 155.718567,187.806351 
	C156.914185,187.238800 158.120285,186.666275 158.779526,186.353333 
	C157.718323,184.346329 156.866241,182.734818 156.014160,181.123306 
	C161.037399,181.057251 166.060654,180.991180 171.542603,181.019958 
M161.872269,214.584106 
	C161.851028,214.836502 161.829773,215.088913 161.808517,215.341309 
	C161.951508,215.344772 162.094513,215.348236 162.237503,215.351700 
	C162.228134,215.098343 162.218765,214.844971 161.872269,214.584106 
z"/>
<path fill="#00FE3B" opacity="1.000000" stroke="none" 
	d="
M155.552719,181.026215 
	C156.866241,182.734818 157.718323,184.346329 158.779526,186.353333 
	C158.120285,186.666275 156.914185,187.238800 155.718567,187.806351 
	C157.533127,195.483765 158.673706,203.022949 152.980316,209.850327 
	C153.325378,210.124191 153.670425,210.398041 154.015488,210.671890 
	C155.197968,209.712097 156.291763,208.595413 157.599060,207.856384 
	C158.288589,207.466568 159.367691,207.638336 160.229568,207.790527 
	C160.398376,207.820328 160.628815,209.339508 160.406281,209.475113 
	C156.047363,212.131363 158.154510,215.074814 159.866714,218.083588 
	C160.160828,218.600403 159.982834,219.385895 160.036835,220.419235 
	C159.170120,219.969788 158.213608,219.214951 157.423141,218.314377 
	C155.131378,215.703384 152.823486,213.197891 148.423187,213.988541 
	C137.500763,203.219788 126.987755,192.459473 116.341339,181.417038 
	C118.587906,181.040207 120.967896,180.945496 123.932106,180.901794 
	C124.516335,180.952805 124.775757,180.812668 124.775757,180.812668 
	C134.880936,180.851486 144.986099,180.890305 155.552719,181.026215 
z"/>
<path fill="#007C54" opacity="1.000000" stroke="none" 
	d="
M204.959076,180.719116 
	C204.885269,180.883957 204.689835,180.928452 204.203537,180.897690 
	C204.220932,180.747879 204.529190,180.673309 204.959076,180.719116 
z"/>
<path fill="#007C54" opacity="1.000000" stroke="none" 
	d="
M124.748474,180.707855 
	C124.775757,180.812668 124.516335,180.952805 124.389755,180.883957 
	C124.263184,180.815109 124.409943,180.574265 124.409943,180.574265 
	C124.409943,180.574265 124.721199,180.603043 124.748474,180.707855 
z"/>
<path fill="#00FF96" opacity="1.000000" stroke="none" 
	d="
M276.909302,300.729248 
	C275.368896,302.235016 273.943176,303.445892 271.955383,304.631958 
	C269.945282,302.273529 267.304108,299.970581 267.243256,297.601349 
	C266.852570,282.389374 266.956055,267.162109 267.127502,251.942444 
	C267.144592,250.425919 268.357086,248.473236 269.615906,247.502472 
	C273.813599,244.265305 275.164886,239.189178 272.718018,234.559326 
	C271.642822,232.524948 270.746094,230.396271 269.768372,228.310394 
	C271.730377,225.943741 273.821381,223.669617 275.608917,221.177780 
	C276.794800,219.524643 277.546295,217.559891 278.479126,215.384827 
	C278.466003,215.035049 278.725922,215.139328 279.177124,215.172333 
	C281.431763,215.187622 283.235229,215.169922 285.330750,215.372528 
	C286.415039,217.398071 287.757050,219.160324 287.902039,221.016113 
	C288.456390,228.111755 288.624512,235.237534 288.939423,242.351944 
	C289.039124,244.604462 289.037231,246.462570 286.006500,247.189453 
	C284.754395,247.489777 283.163483,249.809357 283.135101,251.238525 
	C282.903290,262.907959 283.004547,274.584045 283.004547,286.045837 
	C280.484100,286.885254 278.860382,287.426025 276.777252,288.119812 
	C277.956451,290.122345 278.861450,291.659210 279.283295,292.375580 
	C280.244293,294.911713 273.951904,295.379395 278.899017,297.953308 
	C278.274017,298.780334 277.649017,299.607361 276.909302,300.729248 
z"/>
<path fill="#00FFB1" opacity="1.000000" stroke="none" 
	d="
M308.499023,188.201935 
	C309.001617,194.712311 309.792938,201.217926 309.900116,207.734787 
	C309.966003,211.738586 310.447540,214.671906 314.322174,214.484573 
	C314.212616,223.575867 314.106201,232.405807 313.999756,241.235748 
	C313.968292,243.845932 314.515259,246.559570 310.702728,247.501678 
	C310.111572,247.647766 310.147736,251.403610 310.399506,253.427231 
	C310.521210,254.405258 311.913208,255.174103 312.552521,256.153534 
	C313.170288,257.099976 313.559845,258.195374 314.049622,259.225311 
	C312.644562,259.622192 311.239502,260.019073 309.144806,260.610779 
	C309.485657,261.366455 310.015472,262.541077 310.837219,263.898773 
	C306.940491,268.940094 302.751862,273.798309 297.950623,278.734985 
	C295.906738,277.828033 294.475433,276.842590 293.141174,275.923981 
	C294.539215,273.615204 295.627930,271.817230 296.716675,270.019257 
	C296.457001,269.841553 296.197327,269.663849 295.937683,269.486145 
	C294.561127,270.148193 293.184570,270.810272 292.014374,271.373077 
	C292.014374,264.853424 291.845520,258.585815 292.124115,252.338211 
	C292.201080,250.612457 293.328491,247.725250 294.457367,247.464523 
	C299.270599,246.352921 299.108215,243.051910 299.022675,239.429214 
	C298.924622,235.277390 298.964050,231.121048 299.009583,226.967407 
	C299.060547,222.313950 297.658173,216.928223 305.375458,215.584488 
	C297.443207,214.027817 298.620178,209.210617 299.552338,204.128143 
	C299.767395,202.955292 297.895264,201.399673 297.119690,199.708405 
	C301.003540,195.665070 304.751282,191.933502 308.499023,188.201935 
z"/>
<path fill="#00FEA5" opacity="1.000000" stroke="none" 
	d="
M296.983612,200.020187 
	C297.895264,201.399673 299.767395,202.955292 299.552338,204.128143 
	C298.620178,209.210617 297.443207,214.027817 305.375458,215.584488 
	C297.658173,216.928223 299.060547,222.313950 299.009583,226.967407 
	C298.964050,231.121048 298.924622,235.277390 299.022675,239.429214 
	C299.108215,243.051910 299.270599,246.352921 294.457367,247.464523 
	C293.328491,247.725250 292.201080,250.612457 292.124115,252.338211 
	C291.845520,258.585815 292.014374,264.853424 292.014374,271.373077 
	C293.184570,270.810272 294.561127,270.148193 295.937683,269.486145 
	C296.197327,269.663849 296.457001,269.841553 296.716675,270.019257 
	C295.627930,271.817230 294.539215,273.615204 293.141174,275.923981 
	C294.475433,276.842590 295.906738,277.828033 297.665100,278.905273 
	C291.820251,285.201538 285.648376,291.406036 279.187744,297.781921 
	C273.951904,295.379395 280.244293,294.911713 279.283295,292.375580 
	C278.861450,291.659210 277.956451,290.122345 276.777252,288.119812 
	C278.860382,287.426025 280.484100,286.885254 283.004547,286.045837 
	C283.004547,274.584045 282.903290,262.907959 283.135101,251.238525 
	C283.163483,249.809357 284.754395,247.489777 286.006500,247.189453 
	C289.037231,246.462570 289.039124,244.604462 288.939423,242.351944 
	C288.624512,235.237534 288.456390,228.111755 287.902039,221.016113 
	C287.757050,219.160324 286.415039,217.398071 285.406738,215.027802 
	C289.121643,209.648560 293.052643,204.834366 296.983612,200.020187 
z"/>
<path fill="#00FED2" opacity="1.000000" stroke="none" 
	d="
M349.261536,236.777023 
	C348.108093,234.960678 347.213989,233.042282 346.413239,231.085693 
	C345.877411,229.776474 345.474213,228.413010 345.011658,227.073807 
	C345.358368,226.842728 345.705078,226.611649 346.051758,226.380569 
	C348.487274,228.115723 350.922791,229.850876 353.641418,231.773132 
	C352.469879,233.526382 351.015198,235.092560 349.261536,236.777023 
z"/>
<path fill="#00FED2" opacity="1.000000" stroke="none" 
	d="
M319.754456,180.161438 
	C320.003357,180.220596 319.643005,180.440887 319.643005,180.440887 
	C319.643005,180.440887 319.233276,180.400040 319.120667,180.310822 
	C319.173889,180.181839 319.339722,180.142044 319.754456,180.161438 
z"/>
<path fill="#00FE8B" opacity="1.000000" stroke="none" 
	d="
M269.464020,228.481918 
	C270.746094,230.396271 271.642822,232.524948 272.718018,234.559326 
	C275.164886,239.189178 273.813599,244.265305 269.615906,247.502472 
	C268.357086,248.473236 267.144592,250.425919 267.127502,251.942444 
	C266.956055,267.162109 266.852570,282.389374 267.243256,297.601349 
	C267.304108,299.970581 269.945282,302.273529 271.680359,304.789795 
	C269.554901,307.223328 267.142334,309.474213 264.460663,311.903992 
	C260.253418,313.120361 258.263306,312.302551 259.816986,307.723083 
	C260.392731,306.026062 260.574432,304.195343 261.089020,301.675354 
	C252.821350,303.444824 254.026077,297.853149 254.013138,293.264435 
	C253.975555,279.931305 254.019531,266.597931 253.985947,253.264801 
	C253.978043,250.133209 253.997253,247.708038 258.169220,246.656631 
	C262.144745,245.654694 260.893280,241.707703 260.633362,238.578705 
	C260.528717,237.318970 261.195343,235.995178 261.903229,234.577728 
	C264.583527,232.521103 266.871613,230.587265 269.464020,228.481918 
z"/>
<path fill="#00829C" opacity="1.000000" stroke="none" 
	d="
M297.119690,199.708405 
	C293.052643,204.834366 289.121643,209.648560 285.114685,214.807465 
	C283.235229,215.169922 281.431763,215.187622 279.307007,215.120087 
	C282.874115,209.640289 286.535736,204.061981 290.715790,198.903809 
	C294.751282,193.924042 299.321472,189.377579 303.813049,184.402527 
	C305.942566,184.164261 307.915802,184.164261 310.514404,184.164261 
	C309.838226,185.549103 309.317932,186.614746 308.648315,187.941162 
	C304.751282,191.933502 301.003540,195.665070 297.119690,199.708405 
z"/>
<path fill="#00FE3B" opacity="1.000000" stroke="none" 
	d="
M162.040833,214.587860 
	C162.218765,214.844971 162.228134,215.098343 162.237503,215.351700 
	C162.094513,215.348236 161.951508,215.344772 161.808517,215.341309 
	C161.829773,215.088913 161.851028,214.836502 162.040833,214.587860 
z"/>
</svg>